<?xml version="1.0" standalone="no"?>
<!DOCTYPE svg PUBLIC "-//W3C//DTD SVG 20010904//EN"
 "http://www.w3.org/TR/2001/REC-SVG-20010904/DTD/svg10.dtd">
<svg version="1.0" xmlns="http://www.w3.org/2000/svg"
 width="50.000000pt" height="67.000000pt" viewBox="0 0 50.000000 67.000000"
 preserveAspectRatio="xMidYMid meet">
<metadata>
Created by potrace 1.15, written by Peter Selinger 2001-2017
</metadata>
<g transform="translate(0.000000,67.000000) scale(0.100000,-0.100000)"
fill="#000000" stroke="none">
<path d="M134 75 c-14 -21 -15 -31 -6 -50 16 -34 74 -35 96 -3 12 17 16 19 16
6 0 -30 68 -39 91 -12 11 14 13 14 21 0 15 -27 75 -21 94 9 25 38 6 75 -39 75
-18 0 -38 -5 -45 -12 -9 -9 -15 -9 -24 0 -17 17 -73 15 -89 -4 -11 -14 -13
-14 -21 0 -15 27 -75 21 -94 -9z"/>
</g>
</svg>
